<?xml version="1.0" standalone="no"?>
<!DOCTYPE svg PUBLIC "-//W3C//DTD SVG 20010904//EN"
 "http://www.w3.org/TR/2001/REC-SVG-20010904/DTD/svg10.dtd">
<svg version="1.0" xmlns="http://www.w3.org/2000/svg"
 width="500.000000pt" height="500.000000pt" viewBox="0 0 500.000000 500.000000"
 preserveAspectRatio="xMidYMid meet">
<metadata>
Created by potrace 1.14, written by Peter Selinger 2001-2017
</metadata>
<g transform="translate(0.000000,500.000000) scale(0.100000,-0.100000)"
fill="#000000" stroke="none">
<path d="M0 2500 l0 -2500 2500 0 2500 0 0 2500 0 2500 -2500 0 -2500 0 0
-2500z m4709 2194 c17 -14 31 -32 31 -40 0 -8 -42 -59 -93 -112 -634 -658
-1258 -1544 -1818 -2581 -57 -106 -106 -183 -124 -198 -31 -25 -471 -263 -486
-263 -5 0 -23 33 -42 72 -37 81 -302 552 -391 695 -97 158 -267 319 -377 359
-24 8 -72 16 -107 16 -73 -1 -72 -2 -19 86 122 203 280 300 441 271 182 -32
354 -174 605 -502 l83 -107 175 232 c718 950 1220 1515 1693 1904 114 94 167
129 247 164 87 38 141 39 182 4z m-2004 -189 c208 -32 397 -89 578 -173 l98
-45 -166 -167 -167 -167 -111 38 c-197 66 -312 84 -547 84 -177 0 -221 -3
-320 -24 -454 -94 -827 -342 -1081 -720 -335 -498 -378 -1135 -114 -1677 373
-766 1248 -1131 2060 -860 527 177 943 622 1090 1167 89 331 66 733 -59 1043
l-34 84 162 161 c89 88 165 161 169 161 5 0 32 -51 62 -112 233 -492 265
-1065 89 -1588 -265 -788 -974 -1354 -1803 -1441 -142 -15 -443 -7 -566 15
-219 40 -411 102 -600 196 -642 318 -1087 942 -1174 1650 -16 128 -14 435 5
559 100 688 511 1271 1125 1595 236 125 511 207 784 235 119 13 395 5 520 -14z"/>
</g>
</svg>
